<?xml version="1.0" encoding="UTF-8"?>
<svg width="110px" height="110px" viewBox="0 0 110 110" version="1.1" xmlns="http://www.w3.org/2000/svg" xmlns:xlink="http://www.w3.org/1999/xlink">
    <title>favicon</title>
    <g id="favicon" stroke="none" stroke-width="1" fill="none" fill-rule="evenodd">
        <g id="logo" transform="translate(6, 5)" fill="#C92327" fill-rule="nonzero">
            <path d="M7.61632991,29.6687883 C9.09632991,24.0987883 10.5863399,18.5187883 12.0663399,12.9487883 C13.1663399,12.1687883 14.6563399,11.1687883 16.4663399,10.0687883 C17.7963399,9.26878835 21.1563399,7.29880835 26.0463399,5.20880835 C29.6963399,3.64880835 33.0063399,2.25880835 36.7563399,1.88880835 C37.9663399,1.76880835 39.2563399,1.73880835 39.2563399,1.73880835 C39.2563399,1.73880835 42.1763399,1.67880835 45.2863399,2.14880835 C54.9163399,3.62880835 63.7263399,9.73878835 63.7263399,9.73878835 C70.7963399,14.6487883 74.9863399,20.4587883 77.2163399,24.1387883 C76.3463399,23.0987883 74.9963399,21.6687883 73.0763399,20.3087883 C70.5963399,18.5387883 68.2063399,17.6287883 65.7063399,16.8787883 C57.7763399,14.5087883 50.3363399,14.2787883 50.0163399,14.2687883 C46.3263399,14.1787883 38.4163399,14.0387883 28.8163399,17.2287883 C18.6463399,20.6087883 11.5863399,26.0387883 7.60632991,29.6487883" id="路径"></path>
            <path d="M43.8763399,0.378838348 C46.4763399,0.618838348 49.9263399,1.16883835 53.8163399,2.46883835 C55.3463399,2.97883835 59.7663399,4.56883835 64.8063399,7.98883835 C73.3563399,13.8087883 77.6363399,20.8287883 78.5463399,22.3687883 C80.9063399,26.3787883 83.0063399,29.9287883 83.1963399,35.1087883 C83.3963399,40.6987883 81.2663399,45.0388883 80.0163399,47.1588883 C82.2463399,45.0488883 84.7763399,42.2587883 87.1363399,38.6787883 C91.5063399,32.0587883 93.3863399,25.6487883 94.2563399,21.3187883 C93.1563399,19.0187883 91.2763399,15.7287883 88.1063399,12.4787883 C87.4563399,11.8087883 84.5463399,8.88883835 79.5163399,6.12883835 C73.3863399,2.76883835 67.9963399,1.79883835 63.4063399,1.01883835 C58.7963399,0.228838348 52.0663399,-0.451163652 43.8863399,0.378838348" id="路径"></path>
            <path d="M95.5163399,24.2086883 C95.3663399,24.7586883 95.1463399,25.5386883 94.8563399,26.4786883 C94.8563399,26.4786883 93.5663399,30.6486883 92.0663399,33.9586883 C90.8863399,36.5686883 87.6463399,42.4686883 81.7363399,48.1486883 C75.5463399,54.0886883 69.4663399,56.8686883 66.3863399,58.2386883 C60.1263399,61.0286883 54.6763399,62.1086883 51.5163399,62.5686883 C46.2763399,63.3386883 41.7463399,63.2486883 38.3463399,62.9386883 C39.1463399,64.4086883 40.3863399,66.3486883 42.2163399,68.3586883 C44.3463399,70.6886883 46.3163399,72.0586883 46.8363399,72.4086883 C48.3763399,73.4586883 50.5363399,74.9286883 53.6763399,75.6286883 C56.4163399,76.2386883 58.5563399,75.9686883 61.0663399,75.6286883 C63.3763399,75.3086883 66.7763399,74.5886883 70.6863399,72.7786883 C76.9963399,69.9386883 81.4963399,66.5186883 84.3563399,63.9986883 C87.2563399,61.4386883 90.7563399,58.3086883 93.6363399,53.0086883 C95.8463399,48.9486883 96.7563399,45.3486883 97.1363399,43.5286883 C98.3763399,37.5786883 97.7363399,32.7286883 97.3163399,30.4286883 C96.8363399,27.8386883 96.1363399,25.7186883 95.5263399,24.1786883" id="路径"></path>
            <path d="M48.0863399,24.6288883 C52.1663399,28.6888883 56.2463399,32.7488883 60.3363399,36.8088883 C58.2363399,44.6788883 56.1363399,52.5588883 54.0363399,60.4288883 C52.0463399,60.8888883 50.3663399,61.1288883 49.1463399,61.2488883 C46.5763399,61.5188883 44.4863399,61.4788883 41.8163399,61.4288883 C40.3263399,61.3988883 39.0763399,61.3488883 38.2163399,61.2988883 C41.5063399,49.0788883 44.7963399,36.8488883 48.0863399,24.6288883 Z" id="路径"></path>
            <path d="M45.7963399,21.3686883 C44.2663399,26.9086883 42.7463399,32.4486883 41.2163399,37.9786883 C38.1963399,38.7686883 33.9363399,40.1486883 29.2163399,42.6586883 C19.3163399,47.9486883 13.7463399,54.8786883 12.1663399,56.9386883 C7.67633991,62.7986883 5.52633991,68.2686883 4.71633991,70.5686883 C3.99633991,72.6086883 3.51633991,74.3686883 3.20633991,75.6886883 C2.35633991,73.9686883 1.30633991,71.4386883 0.646343907,68.2486883 C-1.50366009,57.9286883 2.30633991,49.5286883 3.41633991,47.1686883 C7.15633991,39.1586883 12.8863399,34.9386883 17.0163399,31.9086883 C24.6563399,26.2886883 32.0863399,24.2086883 35.8863399,23.1886883 C39.8463399,22.1186883 43.2763399,21.6186883 45.8063399,21.3686883" id="路径"></path>
            <path d="M18.9064399,51.8385883 C15.9364399,54.6785883 13.7864399,57.3985883 12.3064399,59.5185883 C11.3464399,60.8885883 8.26638991,65.4285883 5.84638991,72.1185883 C5.04638991,74.3185883 4.51638991,76.2085883 4.17638991,77.5685883 C4.78638991,78.9085883 5.71638991,80.6985883 7.08638991,82.6685883 C7.89638991,83.8285883 10.7964399,87.8685883 16.0564399,91.4285883 C21.4064399,95.0485883 26.2664399,96.2685883 30.7564399,97.3885883 C32.2564399,97.7685883 37.5464399,99.0287883 44.6764399,99.1987883 C49.1164399,99.2987883 52.9064399,98.9485883 55.8064399,98.5285883 C53.1064399,98.3385883 49.3464399,97.8185883 45.0764399,96.3985883 C42.9964399,95.7085883 37.3164399,93.6385883 31.3064399,88.8385883 C24.5864399,83.4585883 21.2064399,77.6585883 19.6964399,74.9985883 C17.9764399,71.9585883 17.2464399,69.8885883 16.8164399,68.3385883 C16.2764399,66.3585883 15.4364399,63.2085883 16.0764399,59.2085883 C16.5764399,56.0485883 17.7964399,53.5585883 18.8964399,51.8285883" id="路径"></path>
            <path d="M89.8462399,70.7787883 C88.5362399,75.6687883 87.2162399,80.5487883 85.9062399,85.4387883 C84.4062399,86.5987883 82.7762399,87.7587883 81.0062399,88.8787883 C73.9062399,93.3787883 66.9162399,95.8287883 61.1562399,97.1887883 C58.3462399,97.2387883 54.2162399,97.0687883 49.4162399,95.8587883 C46.5862399,95.1487883 39.2662399,93.0087883 31.8962399,87.0187883 C29.4062399,84.9887883 25.9162399,81.7187883 22.6862399,76.8987883 C23.1562399,77.3487883 23.8562399,77.9887883 24.7662399,78.6787883 C26.2762399,79.8287883 29.6562399,82.1387883 37.3062399,83.8287883 C43.2962399,85.1487883 48.0762399,85.2487883 49.5262399,85.2587883 C60.7662399,85.3787883 69.4062399,82.3187883 73.0362399,80.8687883 C80.4862399,77.8887883 86.0662399,73.9587883 89.8562399,70.7587883" id="路径"></path>
        </g>
    </g>
</svg>