<svg width="334" height="101" viewBox="0 0 334 101" fill="none" xmlns="http://www.w3.org/2000/svg">
<g clip-path="url(#clip0_3186_1308)">
<path fill-rule="evenodd" clip-rule="evenodd" d="M138.691 8C140.497 8 141.397 9.01413 141.397 11.0361V17.9961H156.361C160.081 17.9961 161.936 19.9103 161.936 23.7383V36.6621H161.941C161.941 38.9061 161.443 40.5442 160.453 41.5762C159.535 42.5359 158.192 43.0097 156.422 43.0098L155.647 42.9561H141.403V56.042C141.403 58.028 140.497 59.0244 138.697 59.0244C136.897 59.0243 135.991 58.0279 135.991 56.042V42.9561H121.579C117.859 42.9559 116 41.0594 116 37.2676V24.3438C116 22.0639 116.497 20.4019 117.487 19.376C118.369 18.416 119.714 17.9424 121.52 17.9424L122.294 17.9961H135.985V11.0361C135.985 9.01417 136.885 8.00004 138.691 8ZM241.34 8.06641C242.924 8.06645 243.655 8.89405 243.655 10.5498V17.5645H252.434C253.904 17.5645 254.642 18.3025 254.642 19.7725C254.641 21.2422 253.903 21.9258 252.434 21.9258H243.655V23.9121C244.057 23.7621 244.592 23.9481 245.036 24.1221C245.45 24.2782 246.47 24.711 248.239 25.8506L249.674 26.7324C251.401 27.8 251.767 28.0161 252.109 28.208C252.199 28.268 252.361 28.3159 252.571 28.0283C252.949 27.5124 253.208 27.0624 253.43 26.7324C256.046 22.3884 258.122 17.1077 259.67 10.8857C260.15 9.008 261.05 8.07227 262.376 8.07227C264.182 8.07234 265.082 8.86432 265.082 10.4482C265.082 11.1504 264.163 13.9462 262.321 18.8418H275.023C276.715 18.8418 277.561 19.688 277.562 21.3799C277.562 23.0719 276.715 23.9785 275.023 23.9785H273.2C272.756 34.3583 270.956 42.0566 267.788 47.0605C269.63 49.1964 272.06 51.0382 275.078 52.5801C276.734 53.3901 277.562 54.4043 277.562 55.6162L277.549 55.8779C277.488 56.5107 277.216 57.0985 276.733 57.6445C276.146 58.2683 275.575 58.5801 275.023 58.5801C273.847 58.5799 272.095 57.6199 269.779 55.7061C267.349 53.6782 265.693 52.1176 264.812 51.0137C263.12 52.8196 261.128 54.5117 258.848 56.0957C256.346 57.8235 254.504 58.6883 253.328 58.6885C251.558 58.6885 250.676 57.7882 250.676 55.9824V55.3398C250.687 55.1782 250.382 55.1902 250.124 55.1543C249.506 55.0703 248.779 54.7521 247.363 53.9961C246.098 53.3304 245.96 53.2459 245.456 53C244.844 52.694 244.514 52.5438 244.436 52.5078C242.408 54.2777 240.056 55.6338 237.368 56.5938C234.53 57.5537 232.142 58.0283 230.186 58.0283C228.458 58.0283 227.594 57.2176 227.594 55.5977C227.594 54.8959 227.9 54.3443 228.506 53.9424C229.112 53.5344 229.952 53.282 231.02 53.168C234.919 52.724 237.848 51.8425 239.798 50.5166C238.322 49.9286 236.653 49.3577 234.775 48.8057C232.568 48.1817 231.464 47.1321 231.464 45.6562C231.464 45.3623 231.584 44.978 231.824 44.498L232.292 43.5625C232.478 43.1965 232.826 42.5123 233.342 41.5225H229.034C227.378 41.5225 226.55 40.7842 226.55 39.3145C226.55 37.8445 227.378 37.1602 229.034 37.1602H235.328C236.468 34.2865 237.589 32.8529 238.693 32.8525C238.963 32.8525 239.211 32.8721 239.438 32.9082C239.123 32.5065 238.97 31.939 238.97 31.2021V25.79C234.404 31.016 231.091 33.6318 229.027 33.6318C227.63 33.6317 226.928 32.8581 226.928 31.3164C226.928 30.3984 227.702 29.5101 229.25 28.6641C232.676 26.7141 235.418 24.4637 237.476 21.9258H229.189C227.756 21.9257 227.036 21.2061 227.036 19.7725C227.036 18.3386 227.756 17.5646 229.189 17.5645H238.964V10.5498C238.964 8.89401 239.756 8.06641 241.34 8.06641ZM212.63 9.99219C214.73 9.99222 216.248 10.4719 217.184 11.4258C218.126 12.3857 218.594 13.9099 218.594 16.0098V52.1777C218.594 54.2777 218.113 55.7964 217.159 56.7324C216.199 57.6681 214.693 58.1425 212.63 58.1426H177.842C175.742 58.1426 174.224 57.6742 173.288 56.7324L173.117 56.5547C172.294 55.6041 171.878 54.1473 171.878 52.1846V16.0098C171.878 13.9099 172.358 12.3857 173.312 11.4258C174.266 10.4658 175.778 9.99219 177.842 9.99219H212.63ZM302.438 9.16406C303.871 9.16406 304.592 9.97405 304.592 11.5938C304.592 13.2137 303.872 14.0244 302.438 14.0244V42.2959L304.315 41.9658C305.749 41.7438 306.524 42.4102 306.632 43.9521L306.649 44.2344C306.663 45.6077 306.017 46.3963 304.706 46.6045L302.443 47.0479V55.6641C302.443 57.0979 301.67 57.8182 300.122 57.8184C298.574 57.8184 297.8 57.0981 297.8 55.6641V47.876L286.147 49.916C284.75 50.1379 283.868 49.4176 283.496 47.7617C283.166 46.0701 283.718 45.1283 285.151 44.9482L286.256 44.7803V14.0244H285.704C284.27 14.0244 283.55 13.2137 283.55 11.5938C283.55 9.97405 284.27 9.16406 285.704 9.16406H302.438ZM323.912 9.65625C324.572 8.44447 325.808 8.07198 327.613 8.55176C329.455 9.06776 330.008 9.93239 329.27 11.1504L325.076 18.2178H329.714C331.148 18.2178 331.868 19.0462 331.868 20.7021C331.868 22.3581 331.148 23.1318 329.714 23.1318H320.989V31.9102H331.538C332.972 31.9103 333.691 32.7202 333.691 34.3398L333.678 34.6406C333.593 36.0644 332.876 36.7764 331.531 36.7764H320.708C321.848 40.5683 323.6 43.9339 325.952 46.8799C328.268 49.7538 330.464 51.5964 332.521 52.4004C333.811 53.0244 333.865 54.074 332.689 55.5439C331.513 57.0139 330.331 57.3864 329.155 56.6484C324.961 54.6984 321.404 50.5398 318.5 44.168C316.328 49.7659 312.884 54.0678 308.174 57.0918C307.07 57.9378 305.851 57.7166 304.525 56.4326C303.199 55.1786 303.11 54.1105 304.25 53.2285C310.25 49.6946 313.855 44.2103 315.073 36.7705H306.901C305.468 36.7704 304.748 35.9597 304.748 34.3398C304.748 32.7202 305.468 31.9103 306.901 31.9102H315.518L315.571 23.1318H308.174C306.74 23.1318 306.02 22.3221 306.02 20.7021C306.02 19.0822 306.74 18.2178 308.174 18.2178H319.55L323.912 9.65625ZM179.611 14.6846C177.884 14.6847 177.014 15.5483 177.014 17.2822V50.7979C177.014 52.5677 177.878 53.4501 179.611 53.4502H210.865C212.593 53.4502 213.464 52.5679 213.464 50.7979V17.2822C213.464 15.5542 212.599 14.6846 210.865 14.6846H179.611ZM243.662 31.2021C243.662 32.822 242.87 33.6317 241.286 33.6318C241.109 33.6318 240.943 33.6198 240.787 33.5996C241.046 33.9246 241.178 34.3543 241.178 34.8926C241.178 35.4805 240.938 36.2365 240.458 37.1543H253.712C255.296 37.1544 256.088 37.8747 256.088 39.3086C256.088 40.7422 255.296 41.5165 253.712 41.5166H250.622C249.92 44.1685 248.833 46.6704 247.363 49.0283C250.789 50.4263 252.506 51.6802 252.5 52.7842C252.5 53.0721 252.499 53.1022 252.487 53.3662C252.487 53.4201 252.559 53.4136 252.607 53.3896C256.837 51.4037 259.934 49.2143 261.884 46.8203C259.568 42.5124 258.163 36.4582 257.689 28.6523C257.138 29.5702 256.556 30.3924 255.95 31.1123C255.344 31.8323 254.839 32.2404 254.233 32.2764C253.094 32.3363 252.536 31.9161 252.386 31.3643C251.936 32.2102 251.467 32.3897 250.651 32.2217C250.075 32.1075 249.145 31.5083 247.897 30.6445L243.662 27.4463V31.2021ZM207.325 19.502C208.135 19.502 208.772 19.7064 209.228 20.1084C209.689 20.5164 209.918 21.0864 209.918 21.8184C209.918 23.3302 209.053 24.0801 207.325 24.0801H197.33V30.542H205.058C206.749 30.542 207.596 31.298 207.596 32.8037C207.596 34.3097 206.75 35.0117 205.058 35.0117H197.33V43.79H209.204C210.896 43.7902 211.741 44.5461 211.741 46.0518C211.741 47.5576 210.896 48.3739 209.204 48.374H180.932C179.276 48.374 178.447 47.5998 178.447 46.0518L178.463 45.7773C178.56 44.4492 179.385 43.7901 180.938 43.79H192.476V35.0117H184.304C182.612 35.0117 181.766 34.256 181.766 32.75C181.766 31.2441 182.612 30.542 184.304 30.542H192.476V24.0801H182.533C180.8 24.0799 179.936 23.324 179.936 21.8184C179.936 20.3125 180.8 19.5021 182.533 19.502H207.325ZM236.918 44.2939C236.768 44.5879 236.695 44.8641 236.695 45.1221C236.695 45.2721 237.008 45.4164 237.638 45.5664L243.218 47.3359C244.43 45.788 245.258 43.856 245.702 41.54L238.405 41.5342L236.918 44.2939ZM291.056 44.0605L297.794 42.9561V36.332H291.056V44.0605ZM203.905 35.9482C204.271 35.9482 204.668 36.1163 205.094 36.4463C205.514 36.7763 205.909 37.2205 206.281 37.7725C207.127 39.0263 207.554 40.0159 207.554 40.7539C207.554 42.0798 206.744 42.7401 205.124 42.7402C204.68 42.7402 204.301 42.6199 203.989 42.3799C203.677 42.1399 203.39 41.7619 203.132 41.2461L201.914 39.0918C201.656 38.6479 201.529 38.2822 201.529 37.9883C201.529 36.6264 202.322 35.9484 203.905 35.9482ZM261.613 23.9785C262.351 33.3682 263.419 39.4942 264.817 42.3682C266.917 38.4682 268.058 32.3363 268.244 23.9785H261.613ZM124.226 22.9697C123.05 22.9697 122.275 23.1565 121.909 23.5225C121.543 23.8886 121.357 24.6809 121.357 25.8984V35.1201C121.357 36.2956 121.543 37.0694 121.909 37.4355C122.275 37.8015 123.05 37.9883 124.226 37.9883H135.985V22.9697H124.226ZM141.397 37.9824H153.655C154.831 37.9824 155.606 37.7957 155.978 37.4297C156.349 37.0636 156.529 36.2899 156.529 35.1143V25.8916C156.529 24.6798 156.343 23.8876 155.978 23.5156C155.611 23.1497 154.837 22.9639 153.655 22.9639H141.397V37.9824ZM291.056 31.8623H297.794V25.124H291.056V31.8623ZM291.056 20.6484H297.794V14.0244H291.056V20.6484ZM309.506 8.82812C310.94 8.12621 312.176 8.25795 313.208 9.21191C314.828 11.2759 315.877 12.9327 316.357 14.1807C316.981 15.4705 316.562 16.5202 315.086 17.3301L314.807 17.4639C313.465 18.0725 312.434 17.806 311.714 16.6699L308.456 11.7021C307.682 10.4901 308.03 9.53012 309.506 8.82812ZM251.012 9.45801C252.524 9.45801 253.273 10.1961 253.273 11.666C253.273 12.512 252.812 13.5979 251.894 14.9238C250.904 16.3937 250.034 17.1317 249.296 17.1318C247.712 17.1318 246.77 16.4419 246.92 15.0859C246.998 14.3781 247.25 13.9818 247.916 12.8779L248.689 11.4443C249.019 10.7845 249.367 10.2861 249.739 9.95605C250.105 9.62606 250.532 9.45801 251.012 9.45801ZM231.512 9.61426C232.43 9.61426 233.372 10.3346 234.326 11.7686C235.208 13.0582 235.651 13.9941 235.651 14.582C235.651 16.094 234.842 16.8438 233.222 16.8438C232.676 16.8437 231.812 16.4477 230.624 14.4678L230.006 13.46V13.4658C229.898 13.2438 229.699 12.8781 229.52 12.4883C229.286 11.9843 229.189 11.7621 229.189 11.3242C229.189 10.5082 229.964 9.61426 231.512 9.61426Z" fill="#3E3A39"/>
<path d="M7.61999 30.66C9.09999 25.09 10.59 19.51 12.07 13.94C13.17 13.16 14.66 12.16 16.47 11.06C17.8 10.26 21.16 8.29002 26.05 6.20002C29.7 4.64002 33.01 3.25002 36.76 2.88002C37.97 2.76002 39.26 2.73002 39.26 2.73002C39.26 2.73002 42.18 2.67002 45.29 3.14002C54.92 4.62002 63.73 10.73 63.73 10.73C70.8 15.64 74.99 21.45 77.22 25.13C76.35 24.09 75 22.66 73.08 21.3C70.6 19.53 68.21 18.62 65.71 17.87C57.78 15.5 50.34 15.27 50.02 15.26C46.33 15.17 38.42 15.03 28.82 18.22C18.65 21.6 11.59 27.03 7.60999 30.64" fill="#C92327"/>
<path d="M43.88 1.37005C46.48 1.61005 49.93 2.16005 53.82 3.46005C55.35 3.97005 59.77 5.56005 64.81 8.98005C73.36 14.8 77.64 21.82 78.55 23.36C80.91 27.37 83.01 30.92 83.2 36.1C83.4 41.69 81.27 46.0301 80.02 48.1501C82.25 46.0401 84.78 43.25 87.14 39.67C91.51 33.05 93.39 26.64 94.26 22.31C93.16 20.01 91.28 16.72 88.11 13.47C87.46 12.8 84.55 9.88005 79.52 7.12005C73.39 3.76005 68 2.79005 63.41 2.01005C58.8 1.22005 52.07 0.540048 43.89 1.37005" fill="#C92327"/>
<path d="M95.52 25.1999C95.37 25.7499 95.15 26.5299 94.86 27.4699C94.86 27.4699 93.57 31.6399 92.07 34.9499C90.89 37.5599 87.65 43.4599 81.74 49.1399C75.55 55.0799 69.47 57.8599 66.39 59.2299C60.13 62.0199 54.68 63.0999 51.52 63.5599C46.28 64.3299 41.75 64.2399 38.35 63.9299C39.15 65.3999 40.39 67.3399 42.22 69.3499C44.35 71.6799 46.32 73.0499 46.84 73.3999C48.38 74.4499 50.54 75.9199 53.68 76.6199C56.42 77.2299 58.56 76.9599 61.07 76.6199C63.38 76.2999 66.78 75.5799 70.69 73.7699C77 70.9299 81.5 67.5099 84.36 64.9899C87.26 62.4299 90.76 59.2999 93.64 53.9999C95.85 49.9399 96.76 46.3399 97.14 44.5199C98.38 38.5699 97.74 33.7199 97.32 31.4199C96.84 28.8299 96.14 26.7099 95.53 25.1699" fill="#C92327"/>
<path d="M48.09 25.6201C52.17 29.6801 56.25 33.7401 60.34 37.8001C58.24 45.6701 56.14 53.5501 54.04 61.4201C52.05 61.8801 50.37 62.1201 49.15 62.2401C46.58 62.5101 44.49 62.4701 41.82 62.4201C40.33 62.3901 39.08 62.3401 38.22 62.2901C41.51 50.0701 44.8 37.8401 48.09 25.6201Z" fill="#C92327"/>
<path d="M45.8 22.3599C44.27 27.8999 42.75 33.4399 41.22 38.9699C38.2 39.7599 33.94 41.1399 29.22 43.6499C19.32 48.9399 13.75 55.8699 12.17 57.9299C7.68 63.7899 5.53 69.2599 4.72 71.5599C4 73.5999 3.52 75.3599 3.21 76.6799C2.36 74.9599 1.31 72.4299 0.650004 69.2399C-1.5 58.9199 2.31 50.5199 3.42 48.1599C7.16 40.1499 12.89 35.9299 17.02 32.8999C24.66 27.2799 32.09 25.1999 35.89 24.1799C39.85 23.1099 43.28 22.6099 45.81 22.3599" fill="#C92327"/>
<path d="M18.9101 52.8298C15.9401 55.6698 13.7901 58.3898 12.3101 60.5098C11.3501 61.8798 8.27005 66.4198 5.85005 73.1098C5.05005 75.3098 4.52005 77.1998 4.18005 78.5598C4.79005 79.8998 5.72005 81.6898 7.09005 83.6598C7.90005 84.8198 10.8001 88.8598 16.0601 92.4198C21.4101 96.0398 26.2701 97.2598 30.7601 98.3798C32.2601 98.7598 37.5501 100.02 44.6801 100.19C49.1201 100.29 52.9101 99.9398 55.8101 99.5198C53.1101 99.3298 49.3501 98.8098 45.0801 97.3898C43.0001 96.6998 37.3201 94.6298 31.3101 89.8298C24.5901 84.4498 21.2101 78.6498 19.7001 75.9898C17.9801 72.9498 17.2501 70.8798 16.8201 69.3298C16.2801 67.3498 15.4401 64.1998 16.0801 60.1998C16.5801 57.0398 17.8001 54.5498 18.9001 52.8198" fill="#C92327"/>
<path d="M89.8499 71.77C88.5399 76.66 87.2199 81.54 85.9099 86.43C84.4099 87.59 82.7799 88.75 81.0099 89.87C73.9099 94.37 66.9199 96.82 61.1599 98.18C58.3499 98.23 54.2199 98.06 49.4199 96.85C46.5899 96.14 39.2699 94 31.8999 88.01C29.4099 85.98 25.9199 82.71 22.6899 77.89C23.1599 78.34 23.8599 78.98 24.7699 79.67C26.2799 80.82 29.6599 83.13 37.3099 84.82C43.2999 86.14 48.0799 86.24 49.5299 86.25C60.7699 86.37 69.4099 83.31 73.0399 81.86C80.4899 78.88 86.0699 74.95 89.8599 71.75" fill="#C92327"/>
<path d="M126.743 74.1191C129.728 74.1191 132.497 75.33 134.013 77.5059L131.192 80.0361C129.949 78.7131 128.772 78.1211 126.957 78.1211C123.726 78.1211 120.987 80.2789 120.984 84.125C120.987 87.971 123.726 90.1289 126.957 90.1289C128.772 90.1289 129.949 89.5369 131.192 88.2129L134.013 90.7441C132.496 92.92 129.728 94.1309 126.743 94.1309C120.504 94.1308 116.004 90.6737 116 84.125C116.004 77.5762 120.504 74.1192 126.743 74.1191ZM311.51 78.9795H316V82.5898H311.51V87.4746C311.511 89.3505 313.955 90.1717 315.439 89.3662V89.3672L316.813 92.3223C315.541 93.6503 314.026 94.1309 312.043 94.1309C309.909 94.1307 306.405 92.353 306.402 88.8438V82.5908H302.97L302.968 78.9424L306.402 78.9795V75.0811H311.51V78.9795ZM182.466 80.6035C184.885 79.0022 188.124 77.7713 192.354 78.4463C196.124 79.0477 197.728 80.7454 197.731 85.3711V93.8633H193.189L193.159 92.2852H193.055C191.835 93.3762 189.411 94.1299 187.114 94.1299C184.387 94.1298 182.467 92.1027 182.466 89.6338H182.467C182.465 85.5297 186.617 84.2022 192.635 84.2021C192.531 83.0059 192.189 82.4554 190.588 82.2051C188.764 81.9199 186.302 82.7732 184.823 83.6035L182.466 80.6035ZM282.768 93.8633H277.899L277.901 92.3359H277.777C276.525 93.3763 274.806 94.1299 273.116 94.1299C268.674 94.1299 265.825 91.1928 265.822 86.3857C265.819 81.5262 269.612 78.9163 272.786 78.6445C274.532 78.4956 275.885 78.7831 277.238 79.4844L277.244 73H282.779L282.768 93.8633ZM285.24 80.6035C287.659 79.0022 290.899 77.7712 295.129 78.4463C298.898 79.0477 300.502 80.7456 300.505 85.3711V93.8633H295.963L295.933 92.2852H295.828C294.608 93.3762 292.185 94.1298 289.889 94.1299C287.162 94.1299 285.242 92.1028 285.24 89.6338H285.241C285.239 85.5296 289.392 84.2021 295.409 84.2021C295.305 83.0059 294.963 82.4554 293.361 82.2051C291.538 81.92 289.075 82.7732 287.597 83.6035L285.24 80.6035ZM318.425 80.6035C320.844 79.0022 324.083 77.7712 328.313 78.4463C332.083 79.0477 333.686 80.7455 333.689 85.3711V93.8633H329.147L329.117 92.2852H329.013C327.793 93.3761 325.37 94.1298 323.073 94.1299C320.346 94.1299 318.426 92.1028 318.425 89.6338C318.423 85.5296 322.576 84.2021 328.594 84.2021C328.49 83.006 328.148 82.4555 326.547 82.2051C324.723 81.9198 322.26 82.7731 320.781 83.6035L318.425 80.6035ZM221.926 84.4375C221.924 87.1368 222.627 90.0765 226.404 90.0771C230.182 90.077 230.885 87.1362 230.884 84.4375L230.878 73.96H235.417L235.423 85.3711C235.426 91.0769 231.66 94.1289 226.404 94.1289C221.149 94.1287 217.383 91.0767 217.386 85.3711L217.393 73.96H221.932L221.926 84.4375ZM141.346 77.9902L141.362 80.4131C142.349 79.4559 144.072 78.2306 146.912 78.6133C149.622 78.9786 152.061 80.9264 152.063 84.6172L152.069 93.8633H147.447C147.447 93.7982 147.443 86.7395 147.442 85.6533C147.442 84.0987 146.877 83.0058 145.175 82.5645C143.472 82.1231 142.257 83.0339 141.348 83.8896L141.354 93.8633H136.486L136.475 73.001L136.476 73H141.343L141.346 77.9902ZM160.72 93.8633H155.764V78.9775H160.72V93.8633ZM169.298 80.4131C170.284 79.4559 172.007 78.2296 174.848 78.6123C177.558 78.9777 179.997 80.9256 179.999 84.6162L180.004 93.8633H175.382C175.382 93.8633 175.379 86.7434 175.378 85.6523C175.377 84.0978 174.812 83.0048 173.109 82.5635C171.407 82.1224 170.193 83.033 169.283 83.8887L169.289 93.8633H164.421L164.412 78.9785H168.976L169.298 80.4131ZM244.003 80.4131C244.989 79.4559 246.713 78.2296 249.553 78.6123C252.263 78.9777 254.702 80.9256 254.704 84.6162L254.709 93.8633H250.087C250.087 93.8633 250.084 86.7434 250.083 85.6523C250.082 84.0978 249.517 83.0048 247.814 82.5635C246.112 82.1224 244.898 83.033 243.988 83.8887L243.994 93.8633H239.126L239.117 78.9785H243.681L244.003 80.4131ZM263.359 93.8633H258.403V78.9775H263.359V93.8633ZM192.637 87.0098C189.637 87.0098 187.022 87.7753 187.394 89.5225C187.641 90.6824 188.779 90.7806 189.885 90.6143C190.808 90.4756 192.003 89.8857 192.638 89.373L192.637 87.0098ZM295.41 87.0098C292.411 87.0098 289.796 87.7753 290.168 89.5225C290.415 90.6824 291.553 90.7806 292.659 90.6143C293.582 90.4755 294.777 89.8856 295.412 89.373L295.41 87.0098ZM328.595 87.0098C325.596 87.0098 322.981 87.7754 323.353 89.5225C323.6 90.6824 324.738 90.7807 325.844 90.6143C326.767 90.4756 327.962 89.8857 328.597 89.373L328.595 87.0098ZM274.486 82.3828C272.953 82.3829 270.63 83.578 270.632 86.3066C270.633 89.1393 272.677 90.3359 274.585 90.3359C275.756 90.3358 276.994 89.563 277.243 88.8564V83.2666C276.398 82.617 275.425 82.3828 274.486 82.3828ZM160.72 77.4434H155.764V73H160.72V77.4434ZM263.359 77.4434H258.403V73H263.359V77.4434Z" fill="#3C3C3C"/>
</g>
<defs>
<clipPath id="clip0_3186_1308">
<rect width="334" height="101" fill="white"/>
</clipPath>
</defs>
</svg>
