<svg width="16" height="16" viewBox="0 0 16 16" fill="none" xmlns="http://www.w3.org/2000/svg">
<path d="M14.535 0.576523C14.7694 0.342209 15.1484 0.342209 15.3827 0.576523C15.6168 0.810859 15.6169 1.18995 15.3827 1.42418L8.84852 7.95836L15.4667 14.5765C15.7006 14.8109 15.7009 15.19 15.4667 15.4242C15.2325 15.6584 14.8534 15.6581 14.619 15.4242L8.00087 8.80602L1.3827 15.4242C1.14846 15.6583 0.769337 15.6582 0.535045 15.4242C0.300774 15.1899 0.300862 14.8108 0.535045 14.5765L7.15321 7.95836L0.61903 1.42418C0.38472 1.18987 0.384731 0.810839 0.61903 0.576523C0.853344 0.342209 1.23237 0.342209 1.46669 0.576523L8.00087 7.1107L14.535 0.576523Z" fill="#333333"/>
</svg>
